<?xml version="1.0" encoding="UTF-8"?>
<svg id="ICON" xmlns="http://www.w3.org/2000/svg" viewBox="0 0 32 32">
  <defs>
    <style>
      .cls-1 {
        fill: #8b7d30;
        stroke-width: 0px;
      }
    </style>
  </defs>
  <g id="FV_ISOTYPE">
    <g>
      <path class="cls-1" d="M27.52,9.36c-3.17-1.4-6.62-1.54-9.91-2.46-1.88-.53-3.21-2.25-5.02-2.93-1.93-.66-.4,1.22-2.12.55-.72,1.84,6.39,1.91,4.3,4.11-1.14,1.2-3.4,1.08-4.94.77-.71-.14-1.12-1.09-1.77-1.08-3.35.02-1.98-.4-5.92-2.02-.79-.41-2.19.08-1.4,1.05,1.08,1.35,2.96,1,4.26,2.06,1.95,1.59,1.02,4,2.58,5.51-1.1.76-2.84-1.16-4.12-.8.37,2.62,6.75,1.31,6.47,4.6-6.36,6.06,2.42,3.74,5.59,5.76,1.48.94,2.15,2.03,3.34,3.12,1.48,1.35,4.42.06,5.13-1.62,1.74-4.07-2.47-3.79,4.57-5.62,4.89-1.27,3.07-9.29-1.04-11.02ZM8.65,9.52c-.23.51-2.89-.51-1.26-.72.31-.04,1.41.37,1.26.72ZM23.13,9.12c-2.6-.42-3.04-.22-3.71-.83-.75-.69,3.57.18,4.26.34,1.31.3,2.5.52,3.93,1.88,0,0-1.88-.98-4.48-1.4Z"/>
      <path class="cls-1" d="M8.04,5.42c-.03-1.35-1.74-.55-2.55-1.13.09,1,2.58,2.41,2.55,1.13Z"/>
    </g>
  </g>
</svg>