<?xml version="1.0" encoding="UTF-8"?>
<svg xmlns="http://www.w3.org/2000/svg" viewBox="0 0 2384 644">
  <defs>
    <style>
      .cls-1 {
        fill: #8b7d30;
      }

      .cls-1, .cls-2 {
        stroke-width: 0px;
      }

      .cls-2 {
        fill: #2f4a21;
      }
    </style>
  </defs>
  <g id="ICON">
    <g id="H_ISOTYPE">
      <g>
        <path class="cls-1" d="M490.5,246.77c-35.9-15.8-75.01-17.41-112.22-27.84-21.29-5.97-36.34-25.51-56.85-33.17-21.83-7.42-4.52,13.87-24.04,6.29-8.15,20.87,72.4,21.62,48.68,46.54-12.91,13.56-38.46,12.21-55.99,8.74-8.05-1.6-12.68-12.29-20.08-12.24-37.89.27-22.47-4.48-67.02-22.87-8.96-4.6-24.76.89-15.91,11.88,12.28,15.25,33.51,11.3,48.23,23.32,22.03,17.99,11.56,45.28,29.17,62.43-12.47,8.63-32.21-13.17-46.65-9.11,4.14,29.72,76.5,14.84,73.32,52.16-72.09,68.65,27.4,42.32,63.35,65.28,16.73,10.68,24.33,22.98,37.87,35.29,16.79,15.26,50.03.73,58.16-18.31,19.71-46.14-27.98-42.89,51.79-63.6,55.36-14.38,34.78-105.19-11.83-124.78ZM318.09,190.44c1.45-.24,3.41-.36,3.63.72,1.26,6.25-8.09.01-3.63-.72ZM225.9,304.3c2.28-.53,6.77,1.93,7.39,3.97.91,2.98-6.38-2.32-7.39-3.97ZM276.79,248.65c-2.59,5.78-32.73-5.77-14.28-8.11,3.55-.46,16.03,4.21,14.28,8.11ZM440.81,244.07c-29.43-4.7-34.43-2.47-41.98-9.37-8.52-7.79,40.43,2.05,48.26,3.86,14.85,3.44,28.26,5.92,44.49,21.32-.05.03-21.25-11.1-50.78-15.82ZM508.78,355.39c-3.8.18,4.94-8.81,7.84-5.98,3.19,3.11-4.07,5.8-7.84,5.98ZM505.2,268.34c9.04,4.47,13.72,13.84,14.84,23.55-3.15-8.78-10.5-16.88-14.84-23.55Z"/>
        <path class="cls-1" d="M269.92,202.2c-.32-15.26-19.74-6.28-28.87-12.77,1.05,11.35,29.18,27.26,28.87,12.77ZM259.83,195.23c1.34-1.66,5.85.98,5.35,2.12-.98,2.2-6.68-.47-5.35-2.12Z"/>
        <path class="cls-1" d="M195.63,194.01c-1.34-4.25-5.68-6.73-10.21-6.87-19.27-.58,14.31,19.89,10.21,6.87Z"/>
        <path class="cls-1" d="M327.69,421.89c-12.91-.46-1.26,13.73,5.68,7.71,5.65-4.91-1.63-7.57-5.68-7.71Z"/>
        <path class="cls-1" d="M222.33,285.7c9.56-1.49,2.54-8.56-3.37-8.35-9.14.33-3.27,9.38,3.37,8.35Z"/>
        <path class="cls-1" d="M295.38,420.78c-1.69,7.2,11.28,10.71,12.32,6.01.82-3.69-9.56-6.51-12.32-6.01Z"/>
      </g>
    </g>
  </g>
  <g id="TEXT">
    <g id="H_WORDMARK">
      <path class="cls-2" d="M609,413.79v-183.59h69.75l22.18,81.77c.89,2.85,1.96,6.73,3.21,11.62,1.24,4.9,2.49,10.02,3.74,15.37,1.24,5.34,2.31,10.15,3.21,14.43h2.14c.71-3.38,1.6-7.44,2.67-12.16,1.07-4.72,2.22-9.71,3.47-14.97,1.25-5.25,2.41-10.11,3.47-14.56l22.45-81.51h67.88v183.59h-46.5v-78.3c0-7.66.04-15.41.13-23.25.09-7.84.22-14.96.4-21.38.18-6.41.27-11.04.27-13.9h-2.14c-.54,2.67-1.38,6.55-2.54,11.63-1.16,5.08-2.4,10.33-3.74,15.77-1.34,5.44-2.54,10.11-3.61,14.03l-26.72,95.4h-38.48l-26.99-95.4c-.89-3.56-1.96-7.84-3.21-12.83-1.25-4.99-2.45-10.06-3.61-15.23-1.16-5.16-2.19-9.53-3.07-13.09h-2.14c.18,4.63.35,10.29.54,16.97.17,6.68.35,13.63.53,20.84.18,7.22.27,14.03.27,20.44v78.3h-43.56Z"/>
      <path class="cls-2" d="M835.34,413.79l68.95-183.59h57.45l68.95,183.59h-51.04l-10.96-31.8h-73.22l-10.96,31.8h-49.17ZM906.96,346.18h49.97l-13.09-38.75c-.71-1.96-1.56-4.41-2.54-7.35-.98-2.94-1.96-6.05-2.94-9.35-.98-3.29-1.92-6.63-2.81-10.02-.89-3.38-1.78-6.32-2.67-8.82h-1.87c-.71,3.39-1.74,7.22-3.07,11.49-1.34,4.28-2.67,8.55-4.01,12.83-1.34,4.28-2.54,8.02-3.61,11.22l-13.36,38.75Z"/>
      <path class="cls-2" d="M1076.65,413.79v-144.3h-59.59v-39.28h167.02v39.28h-59.59v144.3h-47.83Z"/>
      <path class="cls-2" d="M1211.6,413.79v-183.59h151.52v37.41h-103.69v34.47h90.59v36.61h-90.59v37.68h105.56v37.41h-153.39Z"/>
      <path class="cls-2" d="M1474.01,417c-11.58,0-22.45-1.03-32.6-3.07-10.16-2.05-19.11-5.39-26.86-10.02-7.75-4.63-13.85-10.73-18.3-18.3-4.46-7.57-6.68-16.88-6.68-27.93v-2.4c0-.89.09-1.6.27-2.14h46.23c0,.53-.05,1.2-.13,2-.09.8-.13,1.47-.13,2,0,5.7,1.47,10.29,4.41,13.76,2.94,3.47,7.08,5.97,12.43,7.48,5.34,1.52,11.58,2.27,18.71,2.27,3.92,0,7.57-.18,10.96-.53,3.38-.35,6.41-.98,9.09-1.87,2.67-.89,5.03-2,7.08-3.34,2.05-1.34,3.56-2.94,4.54-4.81.98-1.87,1.47-4.05,1.47-6.55,0-4.1-1.56-7.48-4.68-10.15-3.12-2.67-7.31-4.9-12.56-6.68-5.26-1.78-11.18-3.47-17.77-5.08-6.59-1.6-13.45-3.29-20.58-5.08-7.13-1.78-13.99-4.01-20.58-6.68-6.59-2.67-12.52-6.05-17.77-10.16-5.26-4.1-9.44-9.22-12.56-15.37-3.12-6.15-4.68-13.58-4.68-22.31,0-9.62,2.05-17.95,6.14-24.99,4.1-7.04,9.75-12.78,16.97-17.24,7.21-4.45,15.54-7.7,24.99-9.75,9.44-2.05,19.51-3.07,30.2-3.07s20.35,1.07,29.53,3.21c9.17,2.14,17.32,5.48,24.45,10.02,7.12,4.54,12.69,10.25,16.7,17.1,4.01,6.86,6.1,15.1,6.28,24.72v3.21h-45.96v-1.87c0-4.1-1.12-7.7-3.34-10.82-2.23-3.12-5.57-5.61-10.02-7.48-4.46-1.87-9.98-2.81-16.57-2.81s-12.16.63-16.7,1.87c-4.54,1.25-8.02,3.03-10.42,5.34-2.4,2.32-3.61,5.08-3.61,8.28,0,3.92,1.56,7.13,4.68,9.62,3.12,2.5,7.35,4.63,12.69,6.41,5.34,1.78,11.31,3.43,17.91,4.94,6.59,1.52,13.4,3.12,20.44,4.81,7.04,1.7,13.85,3.83,20.44,6.41,6.59,2.58,12.56,5.88,17.91,9.89,5.34,4.01,9.57,8.95,12.69,14.83,3.11,5.88,4.68,13.01,4.68,21.38,0,14.61-3.43,26.37-10.29,35.27-6.86,8.91-16.3,15.41-28.33,19.51-12.03,4.1-25.61,6.15-40.75,6.15Z"/>
      <path class="cls-2" d="M1630.07,413.79v-144.3h-59.59v-39.28h167.02v39.28h-59.59v144.3h-47.83Z"/>
      <path class="cls-2" d="M1724.67,413.79l68.94-183.59h57.45l68.95,183.59h-51.04l-10.96-31.8h-73.22l-10.96,31.8h-49.17ZM1796.29,346.18h49.97l-13.09-38.75c-.71-1.96-1.56-4.41-2.54-7.35-.98-2.94-1.96-6.05-2.94-9.35-.98-3.29-1.92-6.63-2.8-10.02-.89-3.38-1.78-6.32-2.67-8.82h-1.87c-.71,3.39-1.74,7.22-3.07,11.49-1.34,4.28-2.67,8.55-4.01,12.83-1.34,4.28-2.54,8.02-3.61,11.22l-13.36,38.75Z"/>
      <path class="cls-2" d="M1941.93,413.79v-183.59h47.83v183.59h-47.83Z"/>
      <path class="cls-2" d="M2029.84,413.79v-183.59h42.49l66.81,85.25c1.24,1.43,2.89,3.47,4.94,6.15,2.05,2.67,4.05,5.39,6.01,8.15,1.96,2.77,3.38,4.94,4.28,6.55l1.34-.27v-105.82h44.36v183.59h-42.22l-70.82-89.79c-2.32-2.85-4.5-5.79-6.55-8.82-2.05-3.03-3.7-5.52-4.95-7.48l-1.34.27v105.82h-44.36Z"/>
    </g>
  </g>
</svg>